<svg xmlns="http://www.w3.org/2000/svg" viewBox="0 0 1600 1200" width="1600" height="1200"><g transform="translate(81.0 177.0) rotate(0.0 723.5 328.5) scale(1.9849108367626886 1.9837016416112367)"><svg width="729" height="331.199" viewBox="0 0 729 331.199"><path d="M.5.5h728v330.199H.5z" fill="#fff"/><path d="M728.5 331.199H.5a.5.5 0 0 1-.5-.5V.5A.5.5 0 0 1 .5 0h728a.5.5 0 0 1 .5.5v330.199c0 .277-.223.5-.5.5zm-727.5-1h727V1H1z" fill="#60657C"/></svg></g><g transform="translate(718.0 662.0) rotate(0.0 400.0 79.0) translate(384.0 0.0) scale(1.94884287454324 1.9506172839506173)"><svg width="212.947" height="81" viewBox="197.04 0 212.947 81"><path d="M273.5.5h27.3v80h-27.3z" fill="#fff"/><path d="M300.8 81h-27.3a.5.5 0 0 1-.5-.5V.5a.5.5 0 0 1 .5-.5h27.3a.5.5 0 0 1 .5.5v80a.5.5 0 0 1-.5.5zM274 80h26.3V1H274z" fill="#60657C"/><path d="M328.1.5h27.3v80h-27.3z" fill="#fff"/><path d="M355.4 81h-27.3a.5.5 0 0 1-.5-.5V.5a.5.5 0 0 1 .5-.5h27.3a.5.5 0 0 1 .5.5v80c0 .277-.223.5-.5.5zm-26.8-1h26.3V1h-26.3z" fill="#60657C"/><path d="M218.9.5h27.3v80h-27.3z" fill="#fff"/><path d="M246.2 81h-27.3a.5.5 0 0 1-.5-.5V.5a.5.5 0 0 1 .5-.5h27.3a.5.5 0 0 1 .5.5v80a.5.5 0 0 1-.5.5zm-26.8-1h26.3V1h-26.3z" fill="#60657C"/><path d="M164.3.5h27.373v80H164.3z" fill="#fff"/><path d="M191.673 81H164.3a.5.5 0 0 1-.5-.5V.5a.5.5 0 0 1 .5-.5h27.373a.5.5 0 0 1 .5.5v80a.5.5 0 0 1-.5.5zM164.8 80h26.373V1H164.8z" fill="#60657C"/><path d="M382.7.5H410v80h-27.3z" fill="#fff"/><path d="M410 81h-27.3a.5.5 0 0 1-.5-.5V.5a.5.5 0 0 1 .5-.5H410a.5.5 0 0 1 .5.5v80a.5.5 0 0 1-.5.5zm-26.8-1h26.3V1h-26.3z" fill="#60657C"/><path d="M109.7.5h27.373v80H109.7z" fill="#fff"/><path d="M137.073 81H109.7a.5.5 0 0 1-.5-.5V.5a.5.5 0 0 1 .5-.5h27.373a.5.5 0 0 1 .5.5v80a.5.5 0 0 1-.5.5zM110.2 80h26.373V1H110.2z" fill="#60657C"/><path d="M55.1.5h27.373v80H55.1z" fill="#fff"/><path d="M82.473 81H55.1a.5.5 0 0 1-.5-.5V.5a.5.5 0 0 1 .5-.5h27.372a.5.5 0 0 1 .5.5v80a.498.498 0 0 1-.499.5zM55.6 80h26.372V1H55.6z" fill="#60657C"/><path d="M.5.5h27.373v80H.5z" fill="#fff"/><path d="M27.873 81H.5a.5.5 0 0 1-.5-.5V.5A.5.5 0 0 1 .5 0h27.373a.5.5 0 0 1 .5.5v80a.5.5 0 0 1-.5.5zM1 80h26.373V1H1z" fill="#60657C"/></svg></g><g transform="translate(728.0 804.0) rotate(0.0 400.0 15.0) scale(1.897128222153715 1.875)"><svg width="421.69" height="16" viewBox="0 0 421.69 16"><path d="M.5.5h420.69v15H.5z" fill="#fff"/><path d="M421.19 16H.5a.5.5 0 0 1-.5-.5V.5A.5.5 0 0 1 .5 0h420.69a.5.5 0 0 1 .5.5v15a.5.5 0 0 1-.5.5zM1 15h419.69V1H1z" fill="#60657C"/></svg></g><g transform="translate(90.0 662.0) rotate(0.0 400.0 79.0) scale(1.94884287454324 1.9506172839506173)"><svg width="410.5" height="81" viewBox="0 0 410.5 81"><path d="M273.5.5h27.3v80h-27.3z" fill="#fff"/><path d="M300.8 81h-27.3a.5.5 0 0 1-.5-.5V.5a.5.5 0 0 1 .5-.5h27.3a.5.5 0 0 1 .5.5v80a.5.5 0 0 1-.5.5zM274 80h26.3V1H274z" fill="#60657C"/><path d="M328.1.5h27.3v80h-27.3z" fill="#fff"/><path d="M355.4 81h-27.3a.5.5 0 0 1-.5-.5V.5a.5.5 0 0 1 .5-.5h27.3a.5.5 0 0 1 .5.5v80c0 .277-.223.5-.5.5zm-26.8-1h26.3V1h-26.3z" fill="#60657C"/><path d="M218.9.5h27.3v80h-27.3z" fill="#fff"/><path d="M246.2 81h-27.3a.5.5 0 0 1-.5-.5V.5a.5.5 0 0 1 .5-.5h27.3a.5.5 0 0 1 .5.5v80a.5.5 0 0 1-.5.5zm-26.8-1h26.3V1h-26.3z" fill="#60657C"/><path d="M164.3.5h27.373v80H164.3z" fill="#fff"/><path d="M191.673 81H164.3a.5.5 0 0 1-.5-.5V.5a.5.5 0 0 1 .5-.5h27.373a.5.5 0 0 1 .5.5v80a.5.5 0 0 1-.5.5zM164.8 80h26.373V1H164.8z" fill="#60657C"/><path d="M382.7.5H410v80h-27.3z" fill="#fff"/><path d="M410 81h-27.3a.5.5 0 0 1-.5-.5V.5a.5.5 0 0 1 .5-.5H410a.5.5 0 0 1 .5.5v80a.5.5 0 0 1-.5.5zm-26.8-1h26.3V1h-26.3z" fill="#60657C"/><path d="M109.7.5h27.373v80H109.7z" fill="#fff"/><path d="M137.073 81H109.7a.5.5 0 0 1-.5-.5V.5a.5.5 0 0 1 .5-.5h27.373a.5.5 0 0 1 .5.5v80a.5.5 0 0 1-.5.5zM110.2 80h26.373V1H110.2z" fill="#60657C"/><path d="M55.1.5h27.373v80H55.1z" fill="#fff"/><path d="M82.473 81H55.1a.5.5 0 0 1-.5-.5V.5a.5.5 0 0 1 .5-.5h27.372a.5.5 0 0 1 .5.5v80a.498.498 0 0 1-.499.5zM55.6 80h26.372V1H55.6z" fill="#60657C"/><path d="M.5.5h27.373v80H.5z" fill="#fff"/><path d="M27.873 81H.5a.5.5 0 0 1-.5-.5V.5A.5.5 0 0 1 .5 0h27.373a.5.5 0 0 1 .5.5v80a.5.5 0 0 1-.5.5zM1 80h26.373V1H1z" fill="#60657C"/></svg></g><g transform="translate(727.0 597.0) rotate(0.0 400.0 39.0) translate(303.0 0.0) scale(1.9065776930409912 1.9024390243902438)"><svg width="260.677" height="41" viewBox="158.924 0 260.677 41"><path d="M.5.5h418.6v40H.5z" fill="#fff"/><path d="M419.1 41H.5a.5.5 0 0 1-.5-.5V.5A.5.5 0 0 1 .5 0h418.6a.5.5 0 0 1 .5.5v40a.5.5 0 0 1-.5.5zM1 40h417.6V1H1z" fill="#60657C"/></svg></g><g transform="translate(82.0 804.0) rotate(0.0 400.0 15.0) scale(1.897128222153715 1.875)"><svg width="421.69" height="16" viewBox="0 0 421.69 16"><path d="M.5.5h420.69v15H.5z" fill="#fff"/><path d="M421.19 16H.5a.5.5 0 0 1-.5-.5V.5A.5.5 0 0 1 .5 0h420.69a.5.5 0 0 1 .5.5v15a.5.5 0 0 1-.5.5zM1 15h419.69V1H1z" fill="#60657C"/></svg></g><g transform="translate(80.0 597.0) rotate(0.0 400.0 39.0) scale(1.9065776930409912 1.9024390243902438)"><svg width="419.6" height="41" viewBox="0 0 419.6 41"><path d="M.5.5h418.6v40H.5z" fill="#fff"/><path d="M419.1 41H.5a.5.5 0 0 1-.5-.5V.5A.5.5 0 0 1 .5 0h418.6a.5.5 0 0 1 .5.5v40a.5.5 0 0 1-.5.5zM1 40h417.6V1H1z" fill="#60657C"/></svg></g><g transform="translate(500.0 183.0) rotate(0.0 185.0 323.5) scale(1.9371727748691099 1.9391984846077994)"><svg width="191" height="333.643" viewBox="0 0 191 333.643"><clipPath id="a"><path d="M-920.412-729.856h800v600h-800z"/></clipPath><path d="M190.3.5H.5s57.15 102.643 95 102.643S190.5.5 190.5.5zM95.5 153.143c-37.59 3-95 180-95 180h190s-57.41-177-95-180z" fill="#fff" opacity=".5"/><ellipse clip-path="url(#a)" cx="-521.412" cy="-244.856" fill="#e8e9ec" rx="615.442" ry="445"/><path d="M80.5 113.143h30v30h-30z" fill="#fff"/><g fill="#60657C"><path d="M110.5 143.643h-30a.5.5 0 0 1-.5-.5v-30a.5.5 0 0 1 .5-.5h30a.5.5 0 0 1 .5.5v30a.5.5 0 0 1-.5.5zm-29.5-1h29v-29H81zm14.5-39C57.79 103.643 2.402 4.945.063.744A.5.5 0 0 1 .937.258c.57 1.023 57.438 102.385 94.563 102.385 35.915 0 90.3-94.85 94.33-101.972A.5.5 0 0 1 190.3 0h.2a.5.5 0 0 1 .437.744C188.598 4.945 133.21 103.643 95.5 103.643zm95 230a.5.5 0 0 1-.476-.346c-.573-1.767-57.734-176.716-94.564-179.656C58.71 156.581 1.549 331.53.976 333.297a.499.499 0 1 1-.951-.309c2.348-7.24 57.944-177.352 95.436-180.344 37.571 2.992 93.167 173.104 95.515 180.344a.5.5 0 0 1-.476.655z"/></g></svg></g><g transform="translate(191.0 181.0) rotate(0.0 185.5 324.0) scale(1.942408376963351 1.9421957001945194)"><svg width="191" height="333.643" viewBox="0 0 191 333.643"><clipPath id="b"><path d="M-920.412-729.856h800v600h-800z"/></clipPath><path d="M190.3.5H.5s57.15 102.643 95 102.643S190.5.5 190.5.5zM95.5 153.143c-37.59 3-95 180-95 180h190s-57.41-177-95-180z" fill="#fff" opacity=".5"/><ellipse clip-path="url(#b)" cx="-521.412" cy="-244.856" fill="#e8e9ec" rx="615.442" ry="445"/><path d="M80.5 113.143h30v30h-30z" fill="#fff"/><g fill="#60657C"><path d="M110.5 143.643h-30a.5.5 0 0 1-.5-.5v-30a.5.5 0 0 1 .5-.5h30a.5.5 0 0 1 .5.5v30a.5.5 0 0 1-.5.5zm-29.5-1h29v-29H81zm14.5-39C57.79 103.643 2.402 4.945.063.744A.5.5 0 0 1 .937.258c.57 1.023 57.438 102.385 94.563 102.385 35.915 0 90.3-94.85 94.33-101.972A.5.5 0 0 1 190.3 0h.2a.5.5 0 0 1 .437.744C188.598 4.945 133.21 103.643 95.5 103.643zm95 230a.5.5 0 0 1-.476-.346c-.573-1.767-57.734-176.716-94.564-179.656C58.71 156.581 1.549 331.53.976 333.297a.499.499 0 1 1-.951-.309c2.348-7.24 57.944-177.352 95.436-180.344 37.571 2.992 93.167 173.104 95.515 180.344a.5.5 0 0 1-.476.655z"/></g></svg></g><g transform="translate(433.0 296.0) rotate(0.0 176.0 384.0) scale(2.0345644760418473 2.032590255741141)"><svg width="173.01" height="377.843" viewBox="0 0 173.01 377.843"><path d="m55.993 38.084-9.624 7.967a3.333 3.333 0 0 0-.523 4.591l7.568 9.901 1.179-12.349 2.424-8.485z" fill="#002652"/><path d="m39.921 202.773 83.327.448-5.253-60.451a20.02 20.02 0 0 0-1.386-5.774l-6.873-16.979V70.472H39.921z" fill="#013b84"/><path d="m23.586 73.83 1.837-5.904a14.999 14.999 0 0 1 10.197-9.965l34.35-9.827 28.726-3.124c9.917-1.078 18.104 7.643 16.402 17.472l-3.979 22.972-17.45 8.051-58.056-2.56c-8.651-.382-14.6-8.847-12.027-17.115z" fill="#013b84"/><path d="m47.105 54.744 3.683 20.814 6.209 1.08-3.779 4.859 27.329 33.925c1.59 1.974 4.759 1.209 5.274-1.273l7.889-38.051-4.859-3.239 5.129-3.239-4.589-23.485-20.786 1.89z" fill="#1a4e90"/><path d="M81.084 113.787 55.663 53.023l13.731-6.74 13.756 1.255-.143 65.864c-.002 1.092-1.502 1.391-1.923.385z" fill="#d4e7ff"/><path d="m73.112 94.718-1.249-2.895s1.021-14.231.76-23.966l1.499-.04c.358 13.284-.996 26.768-1.01 26.901z" fill="#002652"/><path d="m76.809 61.901-1.886-1.886a3.186 3.186 0 0 0-4.507-.025l-.025.025-1.886 1.886a3.23 3.23 0 0 0 0 4.561l1.886 1.886a3.23 3.23 0 0 0 4.561 0l1.886-1.886a3.246 3.246 0 0 0-.029-4.561z" fill="#bfc9d4"/><circle cx="72.642" cy="64.182" fill="#002652" r="2.193"/><path d="m60.593 283.209-4.041 35.45-1.378 12.077-2.359 17.628-.234 5.075-.029.271 6.999.194c1.656.048 3.412.097 5.03.149.917.024 1.783.053 2.571.077 2.019.061 3.475.113 3.659.129l.172-.586.489-1.661 9.025 2.543.446-10.493 16.734-65.085 7.539-41.107-26.939-.812-15.824 39.573c-.986 2.205-1.614 4.428-1.86 6.578zm.1-10.524c.06 2.3-.22 4.73-.84 7.2l-10.73 80.877-25.73.025.27-9.232.209-63.561a54.284 54.284 0 0 1 1.484-12.426l8.307-34.793 25.91-9.39z" fill="#013b84"/><path d="m115.687 146.901 4.297 20.424-16.666 86.646c-1.195 6.215-7.662 9.89-13.613 7.734-7.664-2.777-16.389-6.006-16.363-6.301l3.82-107.39z" fill="#013b84"/><path d="m87.331 139.877 4.781 14.254-8.644 20.427-25.804 91.997s-29.171.803-29.105.243L42.34 152.477z" fill="#013b84"/><path d="M22.639 356.537v.004c-.026 0-.022-.004 0-.004z" fill="#29abe2"/><path d="M52.353 354.653H67.67v6.5H52.353z" fill="#002652"/><path d="m55.301 358.739 11.554.075L75.857 361h24.146c1.506 0 2.454-1.624 1.713-2.935l-1.457-2.577a9.003 9.003 0 0 0-5.974-4.378L77.8 347.622l-24.616-2.56-1.778 8.892a3.999 3.999 0 0 0 3.895 4.785z" fill="#002652"/><path d="m95.616 76.817 24.626 38.98 11.687 4.361 7.858-9.532-26.235-53.745z" fill="#013b84"/><path d="m138.546 129.868-16.835-9.285a7.713 7.713 0 0 1-3.987-6.651l-.096-7.163 9.6-6.277a8.66 8.66 0 0 1 11.474 1.804l12.832 15.874-5.392 9.545a5.612 5.612 0 0 1-7.596 2.153zM28.233 71.263a4.586 4.586 0 0 0-4.96 3.91l-5.685 39.303-.552 4.086a9.356 9.356 0 0 0 5.404 9.771l9.95 4.516 13.53-59.955z" fill="#013b84"/><path d="M33.074 351.923h5.222a8 8 0 0 1 8 8v3.017H25.599v-3.541a7.476 7.476 0 0 1 7.475-7.476z" fill="#002652"/><path d="M25.393 377.843h21.206c3.148 0 3.515-5.544 1.512-10.627l-1.753-4.448H25.635l-1.753 4.448c-2.004 5.082-1.637 10.627 1.511 10.627z" fill="#002652"/><path d="M27.687 371.819h16.145c2.397 0 2.676-3.323 1.151-6.368l-1.335-2.665H27.871l-1.335 2.665c-1.525 3.046-1.246 6.368 1.151 6.368z" fill="#193b63"/><path d="m79.434 343.113 5.978 6.498H72.936l-.259-6.498z" fill="#002652"/><path d="M84.762 349.221h-9.487l9.933 2.649a21.1 21.1 0 0 0 7.534.608c.921-.092.99-1.41.083-1.596z" fill="#193b63"/><g fill="#ed956e"><path d="M172.995 121.363c-.284.889-1.266 1.513-2.412 1.442l-17.266-2.467-1.722-5.487 20.936 5.798a.595.595 0 0 1 .464.714z"/><path d="M170.249 123.238c-.126.924-.987 1.709-2.128 1.836l-17.433.546-2.642-5.108 21.622 2.103a.594.594 0 0 1 .581.623z"/><path d="M167.195 125.002c-.153.92-1.037 1.679-2.181 1.772l-17.442.032-2.49-5.184 21.55 2.739c.328.017.58.297.563.625z"/><path d="M161.119 127.303c-.153.92-1.037 1.679-2.181 1.772l-12.874.024a7.246 7.246 0 0 1-6.545-4.109l-.512-1.067 21.55 2.739c.328.017.58.297.563.625l-.001.016z"/><path d="m144.185 128.834 4.862-7.779c.876-3.031-.887-6.228-3.918-7.104l-4.61-1.332c-3.031-.876-10.633.691-11.509 3.722l7.106 8.228a8.286 8.286 0 0 0 3.138 2.254z"/><path d="m135.447 113.499 13.983 4.042-1.049-.364a2.015 2.015 0 0 1-1.109-2.856l.007-.037c.333-.61.914-1.05 1.594-1.201l3.255-.71a4.66 4.66 0 0 0 2.209-1.133c.411-.403.741-.869.879-1.347.074-.256.095-.512.045-.768-.008-.034-.016-.068-.028-.1a.797.797 0 0 0-1.02-.476l-9.922 2.561-2.443.075a9.43 9.43 0 0 0-4.282 1.155l-1.977 1.09a1.859 1.859 0 0 1-.142.069z"/><path d="m136.454 113.085 14.788 4.274-1.109-.384a2.132 2.132 0 0 1-1.173-3.02l.008-.039a2.553 2.553 0 0 1 1.685-1.27l3.443-.751a4.93 4.93 0 0 0 2.337-1.198c.435-.426.784-.919.93-1.425.078-.27.1-.542.047-.813a.84.84 0 0 0-1.108-.609l-10.494 2.708-2.584.079a9.967 9.967 0 0 0-4.529 1.222l-2.091 1.153c-.05.027-.098.051-.15.073z"/><ellipse cx="145.828" cy="119.941" rx="8.454" ry="9.139" transform="matrix(-.2777 .9607 -.9607 -.2777 301.5454 13.1515)"/></g><path d="m58.479 119.811-14.62 1.944-8.772 18.523s-11.213 53.114-12.178 62.383c-.877 8.275-2.134 34.883-2.398 40.409-.049.629.31 1.218.892 1.462l29.766 12.705-2.924-111.11-4.386-14.62z" fill="#2888ff"/><path d="M38.742 127.851s6.228 45.541 5.453 67.646c-.921 26.637 1.623 62.558 2.134 69.371.06.792.44 1.526 1.053 2.032a18.715 18.715 0 0 0 11.696 3.494 22.827 22.827 0 0 0 9.488-1.462 2.719 2.719 0 0 0 1.652-2.924c-.819-10.234-4.24-57.017-4.24-80.409 0-26.316 2.836-55.19 2.836-55.19s-3.509-9.795-12.061-9.795-18.011 7.237-18.011 7.237z" fill="#3d94ff"/><path d="M59.473 126.521c6.462 9.956 1.096 50.57 5.746 58.976 0 0 15.19-.892 15.19-5.746a15.007 15.007 0 0 0-1.462-5.848l1.462-2.924c-9.532-13.888-5.073-36.417-20.936-44.458z" fill="#53a0ff"/><path d="M87.719 171.535c-.819-7.924-5.965-17.398-10.234-28.947-3.114-8.479-9.474-20.205-16.082-27.164-2.398-2.515-7.31-5.848-11.696-5.848-2.924 0-5.848-1.462-10.234-1.462-11.696 0-18.582 9.708-19.971 15.088-5.205 20.219-9.269 49.239-9.269 49.239S0 178.29 0 182.676s2.719 11.842 5.979 14.05 2.12-.643 5.234 1.213a32.607 32.607 0 0 0 16.564 3.743 62.717 62.717 0 0 0 17.544-2.924l-4.386-11.696 5.848-3.099s-2.924-30.804-2.924-49.897c0-6.14 5.307-15.526 14.035-9.269a5.37 5.37 0 0 1 1.579 1.667c15.862 8.041 9.941 33.494 19.474 47.383 3.611.057 8.772-.674 8.772-2.312z" fill="#68abff"/><path d="M57.017 131.872v-12.061c3.655 2.383 11.155 1.577 16.812 1.577-1.213 4.927-3.655 23.276-3.655 23.276l-8.918-.526z" fill="#fff"/><path d="M61.403 128.48c.965.877 3.611 3.32 3.611 3.32l-2.183-.066a4.387 4.387 0 0 1 1.126 4.225l-1.301 5.058a4.385 4.385 0 0 1-2.675 2.924c1.317 1.07 2.367 2.147 1.233 3.281a4.49 4.49 0 0 1-2.997.117l-7.222-2.208s-4.21-1.053-4.21-7.661 3.801-10.395 7.471-10.395c4.325.045 5.817.192 7.147 1.405z" fill="#ed956e"/><path d="M30.702 118.349s-5.058 1.462-9.137 19.605c-3.406 15.161-4.02 39.59-4.02 39.59v4.605a2.503 2.503 0 0 0 .497 2.018l1.184 1.184a.731.731 0 0 0 1.243-.526v-5.248s.19-25.424 3.289-41.652c3.332-17.442 6.944-19.576 6.944-19.576zm8.771-2.924s-8.07 5.219-9.722 24.971c-2.222 26.637-6.403 30.395-4.386 31.403 2.018 1.009 4.912 1.842 6.33-5.848 1.067-5.848.614-11.696 1.272-25.526.454-9.957 2.34-18.027 6.506-25z" fill="#53a0ff"/><path d="m139.268 114.637-2.049 3.879a6.187 6.187 0 0 0 2.447 8.286l2.5 1.4-2.174 2.33-12.58-7.144-.466-12.114 11.493-6.989 8.387 6.678a7.11 7.11 0 0 0-7.558 3.674z" fill="#013b84"/><path d="M61.403 128.48c.965.877 3.611 3.394 3.611 3.394l-2.342.415a4.387 4.387 0 0 1 1.126 4.225l-1.301 5.058a4.385 4.385 0 0 1-2.675 2.924c1.288.739 2.426 1.514 1.429 2.723a4.602 4.602 0 0 1-3.035.12l-7.222-2.208s-4.21-1.053-4.21-7.661 3.801-10.395 7.471-10.395c4.326.045 5.818.192 7.148 1.405z" fill="#002652" opacity=".1"/><path d="M71.516 138.142c-.004.007-.007.015-.015.019-.801.85-2.408 1.217-3.673.524l-9.26-6.309a1.123 1.123 0 0 1-.51-.941v-1.375c0-1.034.838-1.872 1.872-1.872h.537c.267 0 .525.095.728.268l10.156 8.653c.333.24.404.704.165 1.033z" fill="#ed956e"/><path d="M70.258 141.556a2.903 2.903 0 0 1-3.468.758l-9.816-5.702a1.122 1.122 0 0 1-.568-.907l-.086-1.373a1.87 1.87 0 0 1 1.751-1.985l.536-.034c.266-.017.53.062.744.222l10.253 7.335c.348.218.873 1.342.654 1.686z" fill="#ed956e"/><path d="M68.519 144.158a.036.036 0 0 1-.011.02c-.607.915-2.285 1.537-3.568 1.097l-9.342-4.398a1.057 1.057 0 0 1-.623-.791l-.219-1.275a1.76 1.76 0 0 1 1.437-2.033l.498-.086a1.05 1.05 0 0 1 .718.133l10.492 6.007c.348.168.788.982.618 1.326z" fill="#ed956e"/><path d="M66.308 146.287c-.001.007-.002.014-.007.019-.443.911-1.577 1.449-2.804 1.204l-7.931-2.06a.972.972 0 0 1-.666-.647l-.356-1.138a1.623 1.623 0 0 1 1.064-2.034l.445-.139a.978.978 0 0 1 .672.033l9.18 3.949a.64.64 0 0 1 .403.813z" fill="#ed956e"/><path d="m71.45 57.885-6.465 8.891-6.824-7.782-2.968-6.761 14.201-5.95 13.762.372-.021 7.727-1.986 9.969z" fill="#e9f3ff"/><path d="m66.776 1.665-8.835.383c-7.433.323-14.101 11.573-13.778 19.007 0 0 2.333 6.5 3.096 10.426 1.519 7.825 6.262 11.599 12.566 12.671L74.2 46.936 72.462 6.879a5.455 5.455 0 0 0-5.686-5.214z" fill="#002652"/><path d="m58.919 34.138 26.58 4.025-3.636 9.862-8.341 9.341a3 3 0 0 1-3.885.509l-10.819-7.107z" fill="#ed956e"/><path d="m62.752 31.901 24.315-3.511a.892.892 0 0 1 1.015.792l1.08 10.504a4 4 0 0 1-3.57 4.388l-.69.071-21.286-3.84z" fill="#ed956e"/><path d="M54.956 8.062 72.22 6.287a10.053 10.053 0 0 1 10.575 6.853l1.772 5.379c.146.443-.06 1.897.346 3.348.144.517 2.285 2.951 2.438 3.438l.733 3.886-30.67 3.992z" fill="#ed956e"/><path d="m65.928 29.926-.46-10.635a9.27 9.27 0 0 1 8.861-9.662l6.213-.269C80.292 3.584 75.113-.717 69.388.1l-9.36 1.335C47.927 2.644 43.91 16.51 44.663 23.055l3.017 5.58 12.766-.552 2.678 2.987c1.008 1.124 2.87.365 2.804-1.144z" fill="#002652"/><path d="m79.325 21.282-5.793 1.778-1.069 2.402c-.353.794.404 1.629 1.228 1.356l6.358-2.108" fill="#002652" opacity=".1"/><path d="m63.298 35.168-4.393 9.653-6.821-4.242-.04-10.624z" fill="#002652"/><path d="m56.38 27.293.298-.115a4.43 4.43 0 0 1 5.725 2.547l3.062 7.97-4.088-.751a5.66 5.66 0 0 1-3.934-2.835l-2.137-3.876a2.076 2.076 0 0 1 1.074-2.94z" fill="#ed956e"/><path d="m83.538 43.772-5.553-1.461c-1.608-.423-3 1.187-2.349 2.717l2.709 6.369z" fill="#002652" opacity=".1"/></svg></g><g transform="translate(874.0 374.0) rotate(0.0 126.5 230.5) scale(1.8071428571428572 1.807843137254902)"><svg width="140" height="255" viewBox="0 0 140 255"><path d="M5 4h130v251H5z" fill="#bedbff"/><path d="M140 255h-15V15H15v240H0V0h140z" fill="#93c3ff"/><g fill="#fff"><path d="M81 68.11c0 4.167-.89 7.357-2.67 9.57S73.947 81 70.52 81c-3.38 0-6-1.09-7.77-3.25s-2.71-5.28-2.75-9.33v-5.55c0-4.22.9-7.41 2.7-9.6S67.09 50 70.48 50s6 1.08 7.77 3.24 2.71 5.27 2.75 9.32zm-6.17-6.1a10.87 10.87 0 0 0-1.05-5.47 3.61 3.61 0 0 0-3.3-1.71 3.531 3.531 0 0 0-3.21 1.63 10.001 10.001 0 0 0-1.1 5.09v7.34a11.407 11.407 0 0 0 1 5.49 3.55 3.55 0 0 0 3.32 1.79 3.469 3.469 0 0 0 3.26-1.72 10.997 10.997 0 0 0 1-5.27V62zm28.66 7.11H107V74h-3.46v6.55h-6.06V74H84.65v-3.79l12.72-20h6.12zm-12.81 0h6.75V58.43l-.39.68zm-39.68 0h3.46V74H51v6.55h-6.06V74H32.12v-3.79l12.73-20H51zm-12.81 0h6.75V58.43l-.4.68z"/></g><path d="M100 135h15v34h-15z" fill="#4c6786"/><path d="M91 152h20v4H91z" fill="#7f92a8"/><path d="M103 139h9v9h-9z" fill="#002652"/></svg></g></svg>